<?xml version="1.0" encoding="UTF-8" standalone="no"?>
<svg
   viewBox="0 0 9.12 7.678388"
   width="38"
   height="32"
   version="1.1"
   id="svg10"
   sodipodi:docname="favicon.svg"
   inkscape:version="1.1.2 (b8e25be833, 2022-02-05)"
   inkscape:export-filename="C:\Users\Seez\Documents\Dev\mui-dashboard\src\assets\favicon.png"
   inkscape:export-xdpi="126.316"
   inkscape:export-ydpi="126.316"
   xmlns:inkscape="http://www.inkscape.org/namespaces/inkscape"
   xmlns:sodipodi="http://sodipodi.sourceforge.net/DTD/sodipodi-0.dtd"
   xmlns="http://www.w3.org/2000/svg"
   xmlns:svg="http://www.w3.org/2000/svg">
  <defs
     id="defs14" />
  <sodipodi:namedview
     id="namedview12"
     pagecolor="#ffffff"
     bordercolor="#666666"
     borderopacity="1.0"
     inkscape:pageshadow="2"
     inkscape:pageopacity="0.0"
     inkscape:pagecheckerboard="0"
     showgrid="false"
     inkscape:zoom="8.1960265"
     inkscape:cx="25.561167"
     inkscape:cy="25.378151"
     inkscape:window-width="1920"
     inkscape:window-height="1027"
     inkscape:window-x="-8"
     inkscape:window-y="-8"
     inkscape:window-maximized="1"
     inkscape:current-layer="svg10" />
  <g
     style="fill:none"
     id="g870"
     transform="matrix(0.21594126,0,0,0.21594126,0.6729495,0.32216672)">
    <path
       fill-rule="evenodd"
       clip-rule="evenodd"
       d="m 30.343,21.976 a 1,1 0 0 0 0.502,-0.864 l 0.018,-5.787 a 1,1 0 0 1 0.502,-0.864 l 3.137,-1.802 A 1,1 0 0 1 36,13.526 v 10.521 a 1,1 0 0 1 -0.502,0.867 l -11.839,6.8 a 1,1 0 0 1 -0.994,0.001 L 13.374,26.401 A 1,1 0 0 1 12.87,25.533 v -5.305 c 0,-0.006 0.007,-0.01 0.013,-0.007 0.005,0.003 0.012,0 0.012,-0.007 v -0.006 c 0,-0.004 0.002,-0.008 0.006,-0.01 l 7.652,-4.396 c 0.007,-0.004 0.004,-0.015 -0.004,-0.015 a 0.008,0.008 0 0 1 -0.008,-0.008 l 0.015,-5.201 a 1,1 0 0 0 -1.5,-0.87 l -5.687,3.277 a 1,1 0 0 1 -0.998,0 L 6.666,9.7 a 1,1 0 0 0 -1.499,0.866 v 9.4 A 1,1 0 0 1 3.671,20.835 L 0.505,19.025 A 1,1 0 0 1 0.001,18.155 L 0.029,1.725 A 1,1 0 0 1 1.527,0.86 l 10.845,6.229 a 1,1 0 0 0 0.996,0 L 24.21,0.86 a 1,1 0 0 1 1.498,0.868 v 16.434 a 1,1 0 0 1 -0.501,0.867 l -5.678,3.27 a 1,1 0 0 0 0.004,1.735 l 3.132,1.783 a 1,1 0 0 0 0.993,-0.002 z M 31,7.234 a 1,1 0 0 0 1.514,0.857 l 3,-1.8 A 1,1 0 0 0 36,5.434 V 1.766 A 1,1 0 0 0 34.486,0.91 l -3,1.8 A 1,1 0 0 0 31,3.567 v 3.668 z"
       fill="#007fff"
       id="path861" />
  </g>
</svg>
