<?xml version="1.0" encoding="UTF-8" standalone="no"?>
<svg
   viewBox="0 0 182.4 28.793955"
   width="760"
   height="120"
   version="1.1"
   id="svg10"
   sodipodi:docname="logo.svg"
   inkscape:version="1.1.2 (b8e25be833, 2022-02-05)"
   xmlns:inkscape="http://www.inkscape.org/namespaces/inkscape"
   xmlns:sodipodi="http://sodipodi.sourceforge.net/DTD/sodipodi-0.dtd"
   xmlns="http://www.w3.org/2000/svg"
   xmlns:svg="http://www.w3.org/2000/svg">
  <defs
     id="defs14" />
  <sodipodi:namedview
     id="namedview12"
     pagecolor="#ffffff"
     bordercolor="#666666"
     borderopacity="1.0"
     inkscape:pageshadow="2"
     inkscape:pageopacity="0.0"
     inkscape:pagecheckerboard="0"
     showgrid="false"
     inkscape:zoom="0.36221662"
     inkscape:cx="260.89361"
     inkscape:cy="-60.737136"
     inkscape:window-width="1920"
     inkscape:window-height="1027"
     inkscape:window-x="-8"
     inkscape:window-y="-8"
     inkscape:window-maximized="1"
     inkscape:current-layer="svg10" />
  <g
     style="fill:none"
     id="g870"
     transform="matrix(0.92546253,0,0,0.92546253,-9.2416168e-4,-0.67599635)">
    <path
       fill-rule="evenodd"
       clip-rule="evenodd"
       d="m 30.343,21.976 a 1,1 0 0 0 0.502,-0.864 l 0.018,-5.787 a 1,1 0 0 1 0.502,-0.864 l 3.137,-1.802 A 1,1 0 0 1 36,13.526 v 10.521 a 1,1 0 0 1 -0.502,0.867 l -11.839,6.8 a 1,1 0 0 1 -0.994,0.001 L 13.374,26.401 A 1,1 0 0 1 12.87,25.533 v -5.305 c 0,-0.006 0.007,-0.01 0.013,-0.007 0.005,0.003 0.012,0 0.012,-0.007 v -0.006 c 0,-0.004 0.002,-0.008 0.006,-0.01 l 7.652,-4.396 c 0.007,-0.004 0.004,-0.015 -0.004,-0.015 a 0.008,0.008 0 0 1 -0.008,-0.008 l 0.015,-5.201 a 1,1 0 0 0 -1.5,-0.87 l -5.687,3.277 a 1,1 0 0 1 -0.998,0 L 6.666,9.7 a 1,1 0 0 0 -1.499,0.866 v 9.4 A 1,1 0 0 1 3.671,20.835 L 0.505,19.025 A 1,1 0 0 1 0.001,18.155 L 0.029,1.725 A 1,1 0 0 1 1.527,0.86 l 10.845,6.229 a 1,1 0 0 0 0.996,0 L 24.21,0.86 a 1,1 0 0 1 1.498,0.868 v 16.434 a 1,1 0 0 1 -0.501,0.867 l -5.678,3.27 a 1,1 0 0 0 0.004,1.735 l 3.132,1.783 a 1,1 0 0 0 0.993,-0.002 z M 31,7.234 a 1,1 0 0 0 1.514,0.857 l 3,-1.8 A 1,1 0 0 0 36,5.434 V 1.766 A 1,1 0 0 0 34.486,0.91 l -3,1.8 A 1,1 0 0 0 31,3.567 v 3.668 z"
       fill="#007fff"
       id="path861" />
  </g>
  <g
     aria-label="dashboard"
     id="text16316"
     style="font-weight:600;font-size:25.2129px;line-height:1.25;font-family:Poppins;-inkscape-font-specification:'Poppins, Semi-Bold';fill:#0f172a;stroke-width:0.630324"
     transform="matrix(0.99129115,0,0,0.99129115,1.5884942,0.12538057)">
    <path
       d="m 43.905592,16.577894 q 0,-2.117884 0.832026,-3.756722 0.857238,-1.638839 2.319587,-2.52129 1.462348,-0.8824515 3.252464,-0.8824515 1.361496,0 2.596928,0.6051095 1.235433,0.579897 1.966607,1.5632 V 4.9547471 h 3.580232 V 23.612293 h -3.580232 v -2.067458 q -0.655536,1.033729 -1.840542,1.664052 -1.185006,0.630322 -2.748206,0.630322 -1.764903,0 -3.227251,-0.907664 -1.462349,-0.907664 -2.319587,-2.546503 -0.832026,-1.664051 -0.832026,-3.807148 z m 10.992825,0.05043 q 0,-1.285858 -0.504258,-2.193522 -0.504258,-0.932878 -1.361497,-1.411923 -0.857239,-0.504258 -1.840542,-0.504258 -0.983303,0 -1.815329,0.479045 -0.832025,0.479045 -1.361496,1.411923 -0.504258,0.907664 -0.504258,2.168309 0,1.260645 0.504258,2.218735 0.529471,0.932878 1.361496,1.437136 0.857239,0.504258 1.815329,0.504258 0.983303,0 1.840542,-0.479045 0.857239,-0.504258 1.361497,-1.411923 0.504258,-0.932877 0.504258,-2.218735 z"
       id="path19950" />
    <path
       d="m 60.999926,16.577894 q 0,-2.117884 0.832025,-3.756722 0.857239,-1.638839 2.294374,-2.52129 1.462349,-0.8824515 3.252465,-0.8824515 1.563199,0 2.722993,0.6303225 1.185006,0.630322 1.890967,1.588413 V 9.6443466 h 3.555019 V 23.612293 H 71.99275 v -2.042245 q -0.680748,0.983303 -1.890967,1.638839 -1.185007,0.630322 -2.748206,0.630322 -1.764903,0 -3.227252,-0.907664 -1.437135,-0.907664 -2.294374,-2.546503 -0.832025,-1.664051 -0.832025,-3.807148 z m 10.992824,0.05043 q 0,-1.285858 -0.504258,-2.193522 -0.504258,-0.932878 -1.361496,-1.411923 -0.857239,-0.504258 -1.840542,-0.504258 -0.983303,0 -1.815329,0.479045 -0.832026,0.479045 -1.361496,1.411923 -0.504258,0.907664 -0.504258,2.168309 0,1.260645 0.504258,2.218735 0.52947,0.932878 1.361496,1.437136 0.857239,0.504258 1.815329,0.504258 0.983303,0 1.840542,-0.479045 0.857238,-0.504258 1.361496,-1.411923 0.504258,-0.932877 0.504258,-2.218735 z"
       id="path19952" />
    <path
       d="m 84.347059,23.839209 q -1.714478,0 -3.075974,-0.605109 -1.361497,-0.630323 -2.16831,-1.689265 -0.781599,-1.058941 -0.857238,-2.344799 h 3.555019 q 0.100851,0.806813 0.7816,1.336283 0.705961,0.529471 1.73969,0.529471 1.008516,0 1.5632,-0.403406 0.579896,-0.403406 0.579896,-1.033729 0,-0.680748 -0.705961,-1.008516 -0.680748,-0.352981 -2.193522,-0.756387 -1.5632,-0.378193 -2.571716,-0.7816 -0.983303,-0.403406 -1.714477,-1.235432 -0.705961,-0.832026 -0.705961,-2.243948 0,-1.159794 0.655535,-2.117884 0.680748,-0.95809 1.91618,-1.5127737 1.260645,-0.5546838 2.94991,-0.5546838 2.496077,0 3.983638,1.2606445 1.487561,1.235433 1.638838,3.353316 h -3.378528 q -0.07564,-0.832026 -0.705961,-1.311071 -0.60511,-0.504258 -1.638839,-0.504258 -0.95809,0 -1.487561,0.352981 -0.504258,0.352981 -0.504258,0.983303 0,0.705961 0.705961,1.084155 0.705961,0.35298 2.193522,0.731174 1.512774,0.378193 2.496078,0.7816 0.983303,0.403406 1.689264,1.260645 0.731174,0.832026 0.756387,2.218735 0,1.210219 -0.680748,2.168309 -0.655536,0.958091 -1.916181,1.512774 -1.235432,0.529471 -2.899483,0.529471 z"
       id="path19954" />
    <path
       d="m 100.60938,9.4426434 q 1.58841,0 2.82385,0.7059616 1.23543,0.680748 1.91618,2.042244 0.70596,1.336284 0.70596,3.227252 v 8.194192 h -3.52981 v -7.715147 q 0,-1.664052 -0.83202,-2.546503 -0.83203,-0.907665 -2.269166,-0.907665 -1.462348,0 -2.319587,0.907665 -0.832025,0.882451 -0.832025,2.546503 v 7.715147 H 92.742955 V 4.9547471 h 3.529807 v 6.4292899 q 0.680748,-0.907665 1.815328,-1.4119227 1.134581,-0.5294709 2.52129,-0.5294709 z"
       id="path19956" />
    <path
       d="m 111.90474,12.36734 q 0.70596,-1.235432 2.06746,-2.017032 1.36149,-0.7816001 3.10118,-0.7816001 1.86576,0 3.35332,0.8824511 1.48756,0.882452 2.3448,2.496077 0.85724,1.588413 0.85724,3.706297 0,2.092671 -0.85724,3.731509 -0.85724,1.638839 -2.37001,2.546503 -1.48756,0.907664 -3.32811,0.907664 -1.79011,0 -3.15161,-0.7816 -1.33628,-0.781599 -2.01703,-1.991819 v 2.546503 h -2.29437 V 4.9547471 h 2.29437 z m 9.3792,4.286193 q 0,-1.5632 -0.63032,-2.722993 -0.63033,-1.159794 -1.71448,-1.764903 -1.05894,-0.60511 -2.3448,-0.60511 -1.26065,0 -2.3448,0.630322 -1.05894,0.60511 -1.71448,1.790116 -0.63032,1.159794 -0.63032,2.697781 0,1.5632 0.63032,2.748206 0.65554,1.159793 1.71448,1.790116 1.08415,0.605109 2.3448,0.605109 1.28586,0 2.3448,-0.605109 1.08415,-0.630323 1.71448,-1.790116 0.63032,-1.185006 0.63032,-2.773419 z"
       style="font-weight:normal;-inkscape-font-specification:'Poppins, Normal'"
       id="path19958" />
    <path
       d="m 132.68019,23.839209 q -1.9414,0 -3.52981,-0.882451 -1.5632,-0.882452 -2.47086,-2.496077 -0.88246,-1.638839 -0.88246,-3.781935 0,-2.117884 0.90767,-3.73151 0.93288,-1.638838 2.52129,-2.496077 1.58841,-0.8824511 3.55502,-0.8824511 1.9666,0 3.55502,0.8824511 1.58841,0.857239 2.49607,2.470865 0.93288,1.613625 0.93288,3.756722 0,2.143096 -0.95809,3.781935 -0.93288,1.613625 -2.5465,2.496077 -1.61363,0.882451 -3.58023,0.882451 z m 0,-2.017032 q 1.23543,0 2.31958,-0.579896 1.08416,-0.579897 1.73969,-1.73969 0.68075,-1.159794 0.68075,-2.823845 0,-1.664052 -0.65553,-2.823845 -0.65554,-1.159794 -1.71448,-1.714477 -1.05894,-0.579897 -2.29438,-0.579897 -1.26064,0 -2.31958,0.579897 -1.03373,0.554683 -1.66405,1.714477 -0.63033,1.159793 -0.63033,2.823845 0,1.689264 0.60511,2.849057 0.63033,1.159794 1.66406,1.739691 1.03372,0.554683 2.26916,0.554683 z"
       style="font-weight:normal;-inkscape-font-specification:'Poppins, Normal'"
       id="path19960" />
    <path
       d="m 141.9333,16.653533 q 0,-2.117884 0.85724,-3.706297 0.85724,-1.613625 2.3448,-2.496077 1.51277,-0.8824511 3.35332,-0.8824511 1.81533,0 3.15161,0.7816001 1.33628,0.7816 1.99182,1.966606 v -2.52129 h 2.31958 v 13.816669 h -2.31958 v -2.571716 q -0.68075,1.21022 -2.04225,2.017032 -1.33628,0.7816 -3.1264,0.7816 -1.84054,0 -3.3281,-0.907664 -1.48756,-0.907664 -2.3448,-2.546503 -0.85724,-1.638838 -0.85724,-3.731509 z m 11.69879,0.02521 q 0,-1.5632 -0.63032,-2.722994 -0.63033,-1.159793 -1.71448,-1.764903 -1.05894,-0.630322 -2.3448,-0.630322 -1.28586,0 -2.3448,0.60511 -1.05894,0.605109 -1.68927,1.764903 -0.63032,1.159793 -0.63032,2.722993 0,1.588413 0.63032,2.773419 0.63033,1.159793 1.68927,1.790116 1.05894,0.605109 2.3448,0.605109 1.28586,0 2.3448,-0.605109 1.08415,-0.630323 1.71448,-1.790116 0.63032,-1.185006 0.63032,-2.748206 z"
       style="font-weight:normal;-inkscape-font-specification:'Poppins, Normal'"
       id="path19962" />
    <path
       d="m 162.12885,12.039572 q 0.60511,-1.185006 1.71448,-1.840542 1.13458,-0.655535 2.74821,-0.655535 v 2.370013 h -0.60511 q -3.85758,0 -3.85758,4.185341 v 7.513444 h -2.29437 V 9.795624 h 2.29437 z"
       style="font-weight:normal;-inkscape-font-specification:'Poppins, Normal'"
       id="path19964" />
    <path
       d="m 168.38163,16.653533 q 0,-2.117884 0.85724,-3.706297 0.85724,-1.613625 2.3448,-2.496077 1.51277,-0.8824511 3.37853,-0.8824511 1.61362,0 3.00033,0.7563871 1.38671,0.731174 2.11788,1.941393 V 4.9547471 H 182.4 V 23.612293 h -2.31959 v -2.596928 q -0.68074,1.235432 -2.01703,2.042244 -1.33628,0.7816 -3.1264,0.7816 -1.84054,0 -3.35331,-0.907664 -1.48756,-0.907664 -2.3448,-2.546503 -0.85724,-1.638838 -0.85724,-3.731509 z m 11.69878,0.02521 q 0,-1.5632 -0.63032,-2.722994 -0.63032,-1.159793 -1.71448,-1.764903 -1.05894,-0.630322 -2.3448,-0.630322 -1.28585,0 -2.34479,0.60511 -1.05895,0.605109 -1.68927,1.764903 -0.63032,1.159793 -0.63032,2.722993 0,1.588413 0.63032,2.773419 0.63032,1.159793 1.68927,1.790116 1.05894,0.605109 2.34479,0.605109 1.28586,0 2.3448,-0.605109 1.08416,-0.630323 1.71448,-1.790116 0.63032,-1.185006 0.63032,-2.748206 z"
       style="font-weight:normal;-inkscape-font-specification:'Poppins, Normal'"
       id="path19966" />
  </g>
</svg>
